<svg viewBox="0 0 128 128" fill="none" xmlns="http://www.w3.org/2000/svg">
<g id="mostly-clear-day" clip-path="url(#clip0_1858_8340)">
<g id="Sky">
<g id="Sun">
<circle id="Core" cx="50" cy="62" r="12.5" fill="url(#paint0_linear_1858_8340)" stroke="#F8AF18"/>
<g id="Rays">
<path d="M48 32C48 30.8954 48.8954 30 50 30C51.1046 30 52 30.8954 52 32V41.3333C52 42.4379 51.1046 43.3333 50 43.3333C48.8954 43.3333 48 42.4379 48 41.3333V32Z" fill="#F8AF18"/>
<path d="M69.799 39.3726C70.58 38.5915 71.8464 38.5915 72.6274 39.3726C73.4085 40.1536 73.4085 41.42 72.6274 42.201L66.0278 48.8007C65.2467 49.5817 63.9804 49.5817 63.1993 48.8007C62.4183 48.0196 62.4183 46.7533 63.1993 45.9722L69.799 39.3726Z" fill="#F8AF18"/>
<path d="M80 60C81.1046 60 82 60.8954 82 62C82 63.1046 81.1046 64 80 64H70.6667C69.5621 64 68.6667 63.1046 68.6667 62C68.6667 60.8954 69.5621 60 70.6667 60H80Z" fill="#F8AF18"/>
<path d="M72.6274 81.799C73.4085 82.58 73.4085 83.8464 72.6274 84.6274C71.8464 85.4085 70.58 85.4085 69.799 84.6274L63.1993 78.0278C62.4183 77.2467 62.4183 75.9804 63.1993 75.1993C63.9804 74.4183 65.2467 74.4183 66.0278 75.1993L72.6274 81.799Z" fill="#F8AF18"/>
<path d="M48 82.6667C48 81.5621 48.8954 80.6667 50 80.6667C51.1046 80.6667 52 81.5621 52 82.6667V92C52 93.1046 51.1046 94 50 94C48.8954 94 48 93.1046 48 92V82.6667Z" fill="#F8AF18"/>
<path d="M33.9722 75.1993C34.7533 74.4183 36.0196 74.4183 36.8007 75.1993C37.5817 75.9804 37.5817 77.2467 36.8007 78.0278L30.201 84.6274C29.42 85.4085 28.1536 85.4085 27.3726 84.6274C26.5915 83.8464 26.5915 82.58 27.3726 81.799L33.9722 75.1993Z" fill="#F8AF18"/>
<path d="M29.3333 60C30.4379 60 31.3333 60.8954 31.3333 62C31.3333 63.1046 30.4379 64 29.3333 64H20C18.8954 64 18 63.1046 18 62C18 60.8954 18.8954 60 20 60H29.3333Z" fill="#F8AF18"/>
<path d="M36.8007 45.9722C37.5817 46.7533 37.5817 48.0196 36.8007 48.8007C36.0196 49.5817 34.7533 49.5817 33.9722 48.8007L27.3726 42.201C26.5915 41.42 26.5915 40.1536 27.3726 39.3726C28.1536 38.5915 29.42 38.5915 30.201 39.3726L36.8007 45.9722Z" fill="#F8AF18"/>
</g>
</g>
<g id="Clouds">
<g id="Cloud">
<path id="Cloud_2" d="M58.0142 59.8887C61.3363 54.3602 68.3655 51.9679 74.3082 54.5254C80.2917 57.1004 83.5145 63.9169 81.9859 70.2227L81.8297 70.8701L82.4947 70.8408C87.4096 70.6202 91.4996 74.7706 91.4996 79.6602C91.4994 84.3966 87.6454 88.499 82.8834 88.499C70.5117 88.4877 58.1362 88.5 45.7672 88.5C40.9829 88.5012 36.9766 84.6313 36.5406 79.8877C36.104 75.1358 39.3371 70.5714 44.0406 69.6572L44.5181 69.5635L44.438 69.084C43.8797 65.7473 45.2907 62.2583 48.063 60.3203C50.7976 58.4089 54.4855 58.3015 57.3228 60.0566L57.7535 60.3223L58.0142 59.8887Z" fill="url(#paint1_linear_1858_8340)" stroke="#E6EFFC" stroke-miterlimit="10"/>
</g>
</g>
</g>
</g>
<defs>
<linearGradient id="paint0_linear_1858_8340" x1="50" y1="49" x2="50" y2="75" gradientUnits="userSpaceOnUse">
<stop stop-color="#FBBF24"/>
<stop offset="1" stop-color="#F8AF18"/>
</linearGradient>
<linearGradient id="paint1_linear_1858_8340" x1="64.0008" y1="53" x2="64.0008" y2="89" gradientUnits="userSpaceOnUse">
<stop stop-color="#F3F7FE"/>
<stop offset="1" stop-color="#E6EFFC"/>
</linearGradient>
<clipPath id="clip0_1858_8340">
<rect width="128" height="128" fill="white"/>
</clipPath>
</defs>
</svg>