<svg viewBox="0 0 128 128" fill="none" xmlns="http://www.w3.org/2000/svg">
<g id="snowflake" clip-path="url(#clip0_1950_837)">
<g id="Snowflake">
<path id="Snowflake_2" d="M63.9999 55.5C59.3055 55.5001 55.4999 59.3056 55.4999 64C55.4999 68.6944 59.3055 72.4999 63.9999 72.5C68.6943 72.5 72.4999 68.6944 72.4999 64C72.4999 59.3056 68.6943 55.5 63.9999 55.5ZM59.5048 80.7578C59.5048 80.5342 59.3566 80.3374 59.1415 80.2764C56.5769 79.5506 54.2299 78.2079 52.3065 76.3662C52.146 76.2125 51.9023 76.1828 51.7098 76.2939L44.5741 80.415C42.4542 81.6351 39.6228 80.8624 38.41 78.7646C37.1867 76.6484 37.9653 73.8234 40.0634 72.6152L40.0663 72.6133L47.1718 68.4619C47.3617 68.351 47.4568 68.129 47.4061 67.915C46.7915 65.3311 46.7915 62.6386 47.4061 60.0547C47.457 59.8399 47.3609 59.6174 47.1698 59.5068L40.0341 55.3848L40.0057 55.3701L39.7948 55.2588C37.6639 54.0526 36.8785 51.202 38.1063 49.085C39.3886 46.8746 42.4128 46.1948 44.5165 47.5977C44.5254 47.6036 44.5345 47.6099 44.5438 47.6152L51.6796 51.7363C51.8709 51.8468 52.1126 51.8186 52.2733 51.667C54.2135 49.8353 56.5576 48.4836 59.1171 47.7217C59.3291 47.6586 59.4745 47.4634 59.4745 47.2422V39C59.4745 36.55 61.5353 34.5 63.9852 34.5C66.435 34.5002 68.495 36.5501 68.495 39V47.2422C68.495 47.4652 68.6429 47.6612 68.8573 47.7227C71.4197 48.4564 73.7661 49.799 75.6952 51.6348C75.8558 51.7876 76.0979 51.8169 76.2899 51.7061L83.4247 47.584C85.5499 46.3605 88.3624 47.1124 89.5897 49.2354C90.8162 51.357 90.0602 54.1619 87.9364 55.3848L87.9344 55.3857L80.7987 59.5371C80.6083 59.6479 80.5126 59.8706 80.5634 60.085C81.178 62.6689 81.178 65.3614 80.5634 67.9453C80.5125 68.1601 80.6087 68.3826 80.7997 68.4932L87.9354 72.6152C87.9752 72.6382 88.0182 72.6548 88.0624 72.666C90.2999 73.8239 91.1483 76.7516 89.8934 78.915C88.6111 81.1254 85.587 81.8053 83.4833 80.4023L83.455 80.3848L76.2889 76.2637C76.1217 76.1675 75.9168 76.177 75.7606 76.2822L75.6971 76.333C73.7632 78.1508 71.4292 79.4916 68.8827 80.248C68.6707 80.3112 68.5253 80.5064 68.5253 80.7275V89C68.5253 91.4499 66.4653 93.4998 64.0155 93.5C61.5655 93.5 59.5048 91.45 59.5048 89V80.7578Z" fill="url(#paint0_linear_1950_837)" stroke="#72B9D5" stroke-linecap="round" stroke-linejoin="round"/>
</g>
</g>
<defs>
<linearGradient id="paint0_linear_1950_837" x1="63.9999" y1="34" x2="63.9999" y2="94" gradientUnits="userSpaceOnUse">
<stop stop-color="#86C3DB"/>
<stop offset="1" stop-color="#72B9D5"/>
</linearGradient>
<clipPath id="clip0_1950_837">
<rect width="128" height="128" fill="white"/>
</clipPath>
</defs>
</svg>